<svg xmlns="http://www.w3.org/2000/svg" viewBox="0 0 512 512">
  <rect width="512" height="512" rx="104" fill="#203843"/>
  <circle cx="256" cy="276" r="138" fill="#2b4650"/>
  <circle cx="256" cy="276" r="116" fill="#f7e0a6"/>
  <path d="M321 142c35-36 79-37 101-15 26 25 17 71-26 102" fill="none" stroke="#ffcf58" stroke-width="36" stroke-linecap="round"/>
  <path d="M370 102l19-43 23 42 46 8-33 33 6 47-42-21-41 22 6-48-34-32z" fill="#ffd66b"/>
  <circle cx="211" cy="266" r="21" fill="#203843"/>
  <circle cx="303" cy="266" r="21" fill="#203843"/>
  <path d="M208 336c33 24 66 24 99 0" fill="none" stroke="#203843" stroke-width="20" stroke-linecap="round"/>
  <path d="M101 400c84 53 226 55 310 0" fill="none" stroke="#84c98f" stroke-width="30" stroke-linecap="round"/>
  <text x="256" y="456" text-anchor="middle" font-family="Avenir Next Rounded, Arial Rounded MT Bold, system-ui, sans-serif" font-size="42" font-weight="900" fill="#fff4ca">BOOM</text>
</svg>
